<svg width="50" height="50" viewBox="0 0 50 50" fill="none" xmlns="http://www.w3.org/2000/svg">
<path fill-rule="evenodd" clip-rule="evenodd" d="M40.6249 25.0001C40.6249 25.7084 40.5624 26.3751 40.4791 27.0417L44.8749 30.4792C45.2707 30.7917 45.3749 31.3543 45.1249 31.8126L40.9582 39.0209C40.7082 39.4792 40.1666 39.6668 39.6874 39.4793L34.4999 37.3959C33.4166 38.2084 32.2499 38.9168 30.9791 39.4376L30.1874 44.9584C30.1249 45.4584 29.6874 45.8334 29.1666 45.8334H20.8332C20.3124 45.8334 19.8749 45.4584 19.8124 44.9584L19.0207 39.4376C17.7499 38.9168 16.5832 38.2293 15.4999 37.3959L10.3124 39.4793C9.85408 39.6459 9.29158 39.4792 9.04158 39.0209L4.87491 31.8126C4.62491 31.3543 4.72908 30.7917 5.12491 30.4792L9.52074 27.0417C9.43741 26.3751 9.37491 25.6876 9.37491 25.0001C9.37491 24.3126 9.43741 23.6251 9.52074 22.9584L5.12491 19.5209C4.72908 19.2084 4.60408 18.6459 4.87491 18.1876L9.04158 10.9792C9.29158 10.5209 9.83324 10.3334 10.3124 10.5209L15.4999 12.6042C16.5832 11.7917 17.7499 11.0834 19.0207 10.5626L19.8124 5.04175C19.8749 4.54175 20.3124 4.16675 20.8332 4.16675H29.1666C29.6874 4.16675 30.1249 4.54175 30.1874 5.04175L30.9791 10.5626C32.2499 11.0834 33.4166 11.7709 34.4999 12.6042L39.6874 10.5209C40.1457 10.3542 40.7082 10.5209 40.9582 10.9792L45.1249 18.1876C45.3749 18.6459 45.2707 19.2084 44.8749 19.5209L40.4791 22.9584C40.5624 23.6251 40.6249 24.2917 40.6249 25.0001ZM17.7084 25.0001C17.7084 29.0209 20.9792 32.2917 25.0001 32.2917C29.0209 32.2917 32.2917 29.0209 32.2917 25.0001C32.2917 20.9792 29.0209 17.7084 25.0001 17.7084C20.9792 17.7084 17.7084 20.9792 17.7084 25.0001Z" fill="#E0E0E0"/>
</svg>
