<svg width="50" height="50" viewBox="0 0 50 50" fill="none" xmlns="http://www.w3.org/2000/svg">
<path fill-rule="evenodd" clip-rule="evenodd" d="M23.3693 18.7498H15.8096V10.4165H23.3693V18.7498ZM13.8098 18.7499H6.25V10.4166H13.8098V18.7499ZM25.3691 18.7498H32.9289V10.4165H25.3691V18.7498ZM42.4885 18.7498H34.9287V10.4165H42.4885V18.7498Z" fill="#E0E0E0"/>
<path fill-rule="evenodd" clip-rule="evenodd" d="M23.3693 29.1666H15.8096V20.8333H23.3693V29.1666ZM13.8098 29.1667H6.25V20.8333H13.8098V29.1667ZM25.3691 29.1666H32.9289V20.8333H25.3691V29.1666ZM42.4885 29.1666H34.9287V20.8333H42.4885V29.1666Z" fill="#E0E0E0"/>
<path fill-rule="evenodd" clip-rule="evenodd" d="M23.3693 39.5833H15.8096V31.25H23.3693V39.5833ZM13.8098 39.5834H6.25V31.2501H13.8098V39.5834ZM25.3691 39.5833H32.9289V31.25H25.3691V39.5833ZM42.4885 39.5833H34.9287V31.25H42.4885V39.5833Z" fill="#E0E0E0"/>
</svg>
