<svg width="28" height="28" viewBox="0 0 28 28" fill="none" xmlns="http://www.w3.org/2000/svg">
<g filter="url(#filter0_d)">
<path d="M8.00352 22.9688H19.9965L20.6582 8.96875H7.3418L8.00352 22.9688Z" fill="#126B66" fill-opacity="0.15"/>
<path d="M23.625 7H20.125V4.8125C20.125 3.84727 19.3402 3.0625 18.375 3.0625H9.625C8.65977 3.0625 7.875 3.84727 7.875 4.8125V7H4.375C3.89102 7 3.5 7.39102 3.5 7.875V8.75C3.5 8.87031 3.59844 8.96875 3.71875 8.96875H5.37031L6.0457 23.2695C6.08945 24.202 6.86055 24.9375 7.79297 24.9375H20.207C21.1422 24.9375 21.9105 24.2047 21.9543 23.2695L22.6297 8.96875H24.2812C24.4016 8.96875 24.5 8.87031 24.5 8.75V7.875C24.5 7.39102 24.109 7 23.625 7ZM9.84375 5.03125H18.1562V7H9.84375V5.03125ZM19.9965 22.9688H8.00352L7.3418 8.96875H20.6582L19.9965 22.9688Z" fill="black"/>
<path d="M23.625 7H20.125V4.8125C20.125 3.84727 19.3402 3.0625 18.375 3.0625H9.625C8.65977 3.0625 7.875 3.84727 7.875 4.8125V7H4.375C3.89102 7 3.5 7.39102 3.5 7.875V8.75C3.5 8.87031 3.59844 8.96875 3.71875 8.96875H5.37031L6.0457 23.2695C6.08945 24.202 6.86055 24.9375 7.79297 24.9375H20.207C21.1422 24.9375 21.9105 24.2047 21.9543 23.2695L22.6297 8.96875H24.2812C24.4016 8.96875 24.5 8.87031 24.5 8.75V7.875C24.5 7.39102 24.109 7 23.625 7ZM9.84375 5.03125H18.1562V7H9.84375V5.03125ZM19.9965 22.9688H8.00352L7.3418 8.96875H20.6582L19.9965 22.9688Z" fill="#126B66"/>
</g>
<defs>
<filter id="filter0_d" x="-1" y="0" width="30" height="30" filterUnits="userSpaceOnUse" color-interpolation-filters="sRGB">
<feFlood flood-opacity="0" result="BackgroundImageFix"/>
<feColorMatrix in="SourceAlpha" type="matrix" values="0 0 0 0 0 0 0 0 0 0 0 0 0 0 0 0 0 0 127 0"/>
<feOffset dy="1"/>
<feGaussianBlur stdDeviation="0.5"/>
<feColorMatrix type="matrix" values="0 0 0 0 1 0 0 0 0 1 0 0 0 0 1 0 0 0 0.55 0"/>
<feBlend mode="screen" in2="BackgroundImageFix" result="effect1_dropShadow"/>
<feBlend mode="normal" in="SourceGraphic" in2="effect1_dropShadow" result="shape"/>
</filter>
</defs>
</svg>
