<svg width="26" height="26" viewBox="0 0 26 26" fill="none" xmlns="http://www.w3.org/2000/svg">
<path fill-rule="evenodd" clip-rule="evenodd" d="M0 13C0 5.812 5.81201 0 13 0C20.188 0 26 5.812 26 13C26 20.1894 20.1123 26 13 26C5.81201 26 0 20.188 0 13ZM13 2.22292C7.03629 2.22292 2.22291 7.03629 2.22291 13C2.22291 18.9637 7.03629 23.7771 13 23.7771C18.9637 23.7771 23.7771 18.9637 23.7771 13C23.7771 7.03788 18.891 2.22292 13 2.22292Z" fill="#069685"/>
<path fill-rule="evenodd" clip-rule="evenodd" d="M14.267 14.804L14.2711 14.8013C14.2754 14.7985 14.2821 14.794 14.2908 14.7878C14.3082 14.7755 14.3337 14.7566 14.3646 14.7312C14.4265 14.6803 14.5094 14.6035 14.5923 14.501C14.758 14.2964 14.9219 13.9919 14.9219 13.586V13.1436L15.3499 12.9453H15.3647L15.3678 12.9442C15.375 12.9414 15.3859 12.9362 15.3995 12.9278C15.4266 12.9111 15.4608 12.8839 15.4943 12.8444C15.5601 12.7667 15.6248 12.6398 15.6248 12.4465C15.6248 12.4204 15.6078 12.372 15.5728 12.3137C15.5396 12.2584 15.5012 12.2121 15.4804 12.1928L15.1953 11.9287L15.3382 11.5978L15.3399 11.5925L15.3489 11.5642C15.3566 11.5392 15.3678 11.5019 15.3813 11.4537C15.4082 11.3572 15.4443 11.2169 15.4804 11.043C15.5526 10.6949 15.6248 10.2134 15.6248 9.67923C15.6248 9.18382 15.4699 8.75606 15.2549 8.4541C15.037 8.14804 14.77 7.9867 14.5517 7.9867H14.1467L13.9262 7.64626V7.61734C13.9262 7.59572 13.9162 7.56465 13.8789 7.52618C13.8412 7.48746 13.7804 7.44642 13.6929 7.40903C13.5183 7.33437 13.2542 7.28131 12.9117 7.28131C12.0194 7.28131 11.3121 7.50798 10.8295 7.90966C10.3491 8.30953 10.0814 8.8911 10.0814 9.62497C10.0814 9.96777 10.153 10.4348 10.2262 10.8208C10.2625 11.0129 10.2989 11.1831 10.3262 11.3052C10.3398 11.3663 10.3512 11.4153 10.3591 11.449L10.3683 11.4876L10.3707 11.4975L10.3713 11.5L10.3721 11.5034L10.441 11.8224L10.1453 12.1647H10.1178L10.1167 12.1658C10.1063 12.1759 10.0918 12.1943 10.077 12.2217C10.0477 12.276 10.0229 12.3551 10.0229 12.4465C10.0229 12.5453 10.0903 12.6714 10.1971 12.7967C10.3008 12.9184 10.4249 13.02 10.5034 13.0685L10.508 13.0713L10.7843 13.2635V13.586C10.7843 13.9604 10.9591 14.2503 11.1407 14.4574C11.2313 14.5607 11.3224 14.642 11.3924 14.7019C11.404 14.7118 11.4154 14.7214 11.4263 14.7307C11.4471 14.7483 11.466 14.7643 11.4804 14.7771C11.4914 14.787 11.5032 14.798 11.5128 14.809C11.5144 14.8108 11.5162 14.8129 11.5181 14.8152L11.8386 14.9934V16.4618C11.8386 17.1607 11.3975 17.6774 10.8016 18.0808C10.2059 18.4841 9.43467 18.7888 8.73371 19.0593L8.72971 19.0609L8.70512 19.0691C8.06302 19.2853 7.45258 19.4909 7.04722 19.8952L6.9777 19.9646L6 18.9894L6.02774 18.9278C6.19292 18.5605 6.53871 18.398 6.93709 18.2725C7.06496 18.2321 7.1984 18.1954 7.33648 18.1574C7.63982 18.074 7.96554 17.9844 8.30376 17.8369C8.37248 17.807 8.44211 17.7768 8.51219 17.7465C8.95328 17.5556 9.41258 17.3568 9.77989 17.1435C9.99253 17.0199 10.1684 16.8948 10.29 16.7679C10.412 16.6407 10.4705 16.5213 10.4705 16.4075V15.6411C10.1113 15.3536 9.55026 14.7601 9.4221 13.9053C9.12674 13.6284 8.65482 13.1238 8.65482 12.4465C8.65482 12.0596 8.82448 11.7284 8.94106 11.5116C8.82507 11.061 8.71339 10.2659 8.71339 9.62497C8.71339 8.54096 9.11929 7.63138 9.85264 6.99403C10.5847 6.35781 11.6345 6 12.9117 6C13.27 6 13.6745 6.04141 14.0509 6.14603C14.4155 6.24737 14.7613 6.4101 15.0108 6.65909C16.1652 6.9023 17.1099 8.13602 17.1099 9.62497C17.1099 10.5238 16.9453 11.2703 16.8265 11.6703C16.944 11.85 17.0514 12.1236 17.0514 12.4465C17.0514 13.1662 16.6476 13.6731 16.2826 13.9155C16.1535 14.7618 15.6497 15.3028 15.2942 15.5869V16.4075C15.2942 16.4921 15.3397 16.5836 15.4436 16.6837C15.5472 16.7835 15.6986 16.8818 15.8854 16.9783C16.2587 17.1712 16.7495 17.3453 17.2194 17.5085C17.4652 17.5924 17.714 17.6635 17.9593 17.7335C17.9887 17.7419 18.018 17.7503 18.0473 17.7587C18.3198 17.8367 18.5872 17.9153 18.8334 18.0099C19.325 18.1988 19.7494 18.4578 19.9705 18.9261L20 18.9885L18.9858 20L18.9302 19.8626C18.8967 19.7799 18.8077 19.6814 18.6615 19.5731C18.5182 19.4669 18.3313 19.3597 18.1196 19.256C17.6964 19.0487 17.1844 18.8605 16.7483 18.7258L16.7459 18.7251L16.7242 18.7178C16.089 18.5038 15.3982 18.2711 14.8652 17.9351C14.3232 17.5934 13.9262 17.1328 13.9262 16.4618V14.9934L14.267 14.804ZM10.1247 12.1591L10.1232 12.16L10.1247 12.1591Z" fill="#069685"/>
</svg>
