<svg width="20" height="25" viewBox="0 0 20 25" fill="none" xmlns="http://www.w3.org/2000/svg">
<path fill-rule="evenodd" clip-rule="evenodd" d="M17.0003 8.33317H15.8337V5.99984C15.8337 2.77984 13.2203 0.166504 10.0003 0.166504C6.78032 0.166504 4.16699 2.77984 4.16699 5.99984H6.50032C6.50032 4.06317 8.06366 2.49984 10.0003 2.49984C11.937 2.49984 13.5003 4.06317 13.5003 5.99984V8.33317H3.00033C1.71699 8.33317 0.666992 9.38317 0.666992 10.6665V22.3332C0.666992 23.6165 1.71699 24.6665 3.00033 24.6665H17.0003C18.2837 24.6665 19.3337 23.6165 19.3337 22.3332V10.6665C19.3337 9.38317 18.2837 8.33317 17.0003 8.33317ZM3.00033 22.3332V10.6665H17.0003V22.3332H3.00033ZM12.3337 16.4998C12.3337 17.7832 11.2837 18.8332 10.0003 18.8332C8.71699 18.8332 7.66699 17.7832 7.66699 16.4998C7.66699 15.2165 8.71699 14.1665 10.0003 14.1665C11.2837 14.1665 12.3337 15.2165 12.3337 16.4998Z" fill="#069685"/>
</svg>
